<svg width="48" height="48" viewBox="0 0 48 48" fill="none" xmlns="http://www.w3.org/2000/svg">
<g filter="url(#filter0_d)">
<path d="M27.8281 20C27.8281 22.1143 26.1143 23.8281 24 23.8281C21.8857 23.8281 20.1719 22.1143 20.1719 20C20.1719 17.8857 21.8857 16.1719 24 16.1719C26.1143 16.1719 27.8281 17.8857 27.8281 20Z" fill="white"/>
<path d="M32.9526 13.2269C32.7686 12.7283 32.475 12.2769 32.0936 11.9064C31.7231 11.525 31.272 11.2314 30.7731 11.0474C30.3684 10.8902 29.7605 10.7031 28.6408 10.6522C27.4296 10.5969 27.0664 10.585 24 10.585C20.9333 10.585 20.5701 10.5966 19.3592 10.6519C18.2395 10.7031 17.6313 10.8902 17.2269 11.0474C16.728 11.2314 16.2766 11.525 15.9064 11.9064C15.525 12.2769 15.2314 12.728 15.0471 13.2269C14.8899 13.6316 14.7028 14.2398 14.6519 15.3595C14.5966 16.5704 14.5847 16.9336 14.5847 20.0003C14.5847 23.0667 14.5966 23.4299 14.6519 24.6411C14.7028 25.7608 14.8899 26.3687 15.0471 26.7734C15.2314 27.2723 15.5247 27.7234 15.9061 28.0939C16.2766 28.4753 16.7277 28.7689 17.2266 28.9529C17.6313 29.1104 18.2395 29.2975 19.3592 29.3484C20.5701 29.4037 20.933 29.4153 23.9997 29.4153C27.0667 29.4153 27.4299 29.4037 28.6405 29.3484C29.7602 29.2975 30.3684 29.1104 30.7731 28.9529C31.7747 28.5666 32.5663 27.775 32.9526 26.7734C33.1098 26.3687 33.2969 25.7608 33.3481 24.6411C33.4034 23.4299 33.415 23.0667 33.415 20.0003C33.415 16.9336 33.4034 16.5704 33.3481 15.3595C33.2972 14.2398 33.1101 13.6316 32.9526 13.2269ZM24 25.8972C20.7429 25.8972 18.1025 23.2571 18.1025 20C18.1025 16.7429 20.7429 14.1028 24 14.1028C27.2568 14.1028 29.8972 16.7429 29.8972 20C29.8972 23.2571 27.2568 25.8972 24 25.8972ZM30.1304 15.2478C29.3693 15.2478 28.7522 14.6307 28.7522 13.8696C28.7522 13.1085 29.3693 12.4915 30.1304 12.4915C30.8915 12.4915 31.5085 13.1085 31.5085 13.8696C31.5082 14.6307 30.8915 15.2478 30.1304 15.2478Z" fill="white"/>
<path d="M24 0C12.956 0 4 8.95599 4 20C4 31.044 12.956 40 24 40C35.044 40 44 31.044 44 20C44 8.95599 35.044 0 24 0ZM35.4151 24.7348C35.3596 25.9573 35.1652 26.792 34.8813 27.5226C34.2847 29.0652 33.0652 30.2847 31.5226 30.8813C30.7923 31.1652 29.9573 31.3593 28.7351 31.4151C27.5104 31.4709 27.1192 31.4844 24.0003 31.4844C20.8811 31.4844 20.4902 31.4709 19.2652 31.4151C18.043 31.3593 17.208 31.1652 16.4777 30.8813C15.7111 30.593 15.0172 30.141 14.4434 29.5566C13.8593 28.9832 13.4073 28.2889 13.119 27.5226C12.8351 26.7923 12.6407 25.9573 12.5852 24.7351C12.5287 23.5101 12.5156 23.1189 12.5156 20C12.5156 16.8811 12.5287 16.4899 12.5849 15.2652C12.6404 14.0427 12.8345 13.208 13.1183 12.4774C13.4067 11.7111 13.859 11.0168 14.4434 10.4434C15.0168 9.85901 15.7111 9.40704 16.4774 9.11865C17.208 8.83484 18.0427 8.64075 19.2652 8.5849C20.4899 8.52905 20.8811 8.51562 24 8.51562C27.1189 8.51562 27.5101 8.52905 28.7348 8.58521C29.9573 8.64075 30.792 8.83484 31.5226 9.11835C32.2889 9.40674 32.9832 9.85901 33.5569 10.4434C34.141 11.0172 34.5933 11.7111 34.8813 12.4774C35.1655 13.208 35.3596 14.0427 35.4154 15.2652C35.4713 16.4899 35.4844 16.8811 35.4844 20C35.4844 23.1189 35.4713 23.5101 35.4151 24.7348Z" fill="white"/>
</g>
<defs>
<filter id="filter0_d" x="0" y="0" width="48" height="48" filterUnits="userSpaceOnUse" color-interpolation-filters="sRGB">
<feFlood flood-opacity="0" result="BackgroundImageFix"/>
<feColorMatrix in="SourceAlpha" type="matrix" values="0 0 0 0 0 0 0 0 0 0 0 0 0 0 0 0 0 0 127 0"/>
<feOffset dy="4"/>
<feGaussianBlur stdDeviation="2"/>
<feColorMatrix type="matrix" values="0 0 0 0 0 0 0 0 0 0 0 0 0 0 0 0 0 0 0.25 0"/>
<feBlend mode="normal" in2="BackgroundImageFix" result="effect1_dropShadow"/>
<feBlend mode="normal" in="SourceGraphic" in2="effect1_dropShadow" result="shape"/>
</filter>
</defs>
</svg>
